<?xml version="1.0" encoding="UTF-8" standalone="no"?>
<!DOCTYPE svg PUBLIC "-//W3C//DTD SVG 1.1//EN"
 "http://www.w3.org/Graphics/SVG/1.1/DTD/svg11.dtd">
<!-- Generated by graphviz version 2.47.0 (20210316.0004)
 -->
<!-- Title: dbml Pages: 1 -->
<svg width="1614pt" height="1261pt"
 viewBox="0.00 0.00 1614.42 1260.92" xmlns="http://www.w3.org/2000/svg" xmlns:xlink="http://www.w3.org/1999/xlink">
<g id="graph0" class="graph" transform="scale(1 1) rotate(0) translate(4 1256.92)">
<title>dbml</title>
<!-- Customer -->
<g id="Customer" class="node">
<title>Customer</title>
<ellipse fill="none" stroke="black" stroke-width="0" cx="1382.27" cy="-995.53" rx="224.31" ry="257.27"/>
<polygon fill="#1d71b8" stroke="transparent" points="1226.27,-1115.53 1226.27,-1175.53 1539.27,-1175.53 1539.27,-1115.53 1226.27,-1115.53"/>
<polygon fill="none" stroke="#29235c" points="1226.27,-1115.53 1226.27,-1175.53 1539.27,-1175.53 1539.27,-1115.53 1226.27,-1115.53"/>
<text text-anchor="start" x="1251.19" y="-1136.73" font-family="Helvetica,sans-Serif" font-weight="bold" font-size="32.00" fill="#ffffff"> &#160;&#160;&#160;&#160;&#160;&#160;Customer &#160;&#160;&#160;&#160;&#160;&#160;</text>
<polygon fill="#e7e2dd" stroke="transparent" points="1226.27,-1055.53 1226.27,-1115.53 1539.27,-1115.53 1539.27,-1055.53 1226.27,-1055.53"/>
<polygon fill="none" stroke="#29235c" points="1226.27,-1055.53 1226.27,-1115.53 1539.27,-1115.53 1539.27,-1055.53 1226.27,-1055.53"/>
<text text-anchor="start" x="1237.27" y="-1076.73" font-family="Helvetica,sans-Serif" font-weight="bold" font-size="32.00" fill="#29235c">id</text>
<text text-anchor="start" x="1262.16" y="-1076.73" font-family="Helvetica,sans-Serif" font-size="32.00" fill="#29235c"> &#160;&#160;&#160;</text>
<text text-anchor="start" x="1386.05" y="-1076.73" font-family="Helvetica,sans-Serif" font-style="italic" font-size="32.00" fill="#29235c">INTEGER</text>
<polygon fill="#e7e2dd" stroke="transparent" points="1226.27,-995.53 1226.27,-1055.53 1539.27,-1055.53 1539.27,-995.53 1226.27,-995.53"/>
<polygon fill="none" stroke="#29235c" points="1226.27,-995.53 1226.27,-1055.53 1539.27,-1055.53 1539.27,-995.53 1226.27,-995.53"/>
<text text-anchor="start" x="1237.27" y="-1015.73" font-family="Helvetica,sans-Serif" font-size="32.00" fill="#29235c">name &#160;&#160;&#160;</text>
<text text-anchor="start" x="1371.84" y="-1016.73" font-family="Helvetica,sans-Serif" font-style="italic" font-size="32.00" fill="#29235c">VARCHAR</text>
<polygon fill="#e7e2dd" stroke="transparent" points="1226.27,-935.53 1226.27,-995.53 1539.27,-995.53 1539.27,-935.53 1226.27,-935.53"/>
<polygon fill="none" stroke="#29235c" points="1226.27,-935.53 1226.27,-995.53 1539.27,-995.53 1539.27,-935.53 1226.27,-935.53"/>
<text text-anchor="start" x="1237.27" y="-955.73" font-family="Helvetica,sans-Serif" font-size="32.00" fill="#29235c">email &#160;&#160;&#160;</text>
<text text-anchor="start" x="1371.84" y="-956.73" font-family="Helvetica,sans-Serif" font-style="italic" font-size="32.00" fill="#29235c">VARCHAR</text>
<polygon fill="#e7e2dd" stroke="transparent" points="1226.27,-875.53 1226.27,-935.53 1539.27,-935.53 1539.27,-875.53 1226.27,-875.53"/>
<polygon fill="none" stroke="#29235c" points="1226.27,-875.53 1226.27,-935.53 1539.27,-935.53 1539.27,-875.53 1226.27,-875.53"/>
<text text-anchor="start" x="1237.27" y="-895.73" font-family="Helvetica,sans-Serif" font-size="32.00" fill="#29235c">balance &#160;&#160;&#160;</text>
<text text-anchor="start" x="1425.15" y="-896.73" font-family="Helvetica,sans-Serif" font-style="italic" font-size="32.00" fill="#29235c">FLOAT</text>
<polygon fill="#e7e2dd" stroke="transparent" points="1226.27,-815.53 1226.27,-875.53 1539.27,-875.53 1539.27,-815.53 1226.27,-815.53"/>
<polygon fill="none" stroke="#29235c" points="1226.27,-815.53 1226.27,-875.53 1539.27,-875.53 1539.27,-815.53 1226.27,-815.53"/>
<text text-anchor="start" x="1237.05" y="-835.73" font-family="Helvetica,sans-Serif" font-size="32.00" fill="#29235c">credit_limit &#160;&#160;&#160;</text>
<text text-anchor="start" x="1425.21" y="-836.73" font-family="Helvetica,sans-Serif" font-style="italic" font-size="32.00" fill="#29235c">FLOAT</text>
<polygon fill="none" stroke="#29235c" stroke-width="2" points="1224.77,-814.53 1224.77,-1176.53 1539.77,-1176.53 1539.77,-814.53 1224.77,-814.53"/>
</g>
<!-- Order -->
<g id="Order" class="node">
<title>Order</title>
<ellipse fill="none" stroke="black" stroke-width="0" cx="846.34" cy="-1025.53" rx="266.66" ry="214.92"/>
<polygon fill="#1d71b8" stroke="transparent" points="660.34,-1115.53 660.34,-1175.53 1033.34,-1175.53 1033.34,-1115.53 660.34,-1115.53"/>
<polygon fill="none" stroke="#29235c" points="660.34,-1115.53 660.34,-1175.53 1033.34,-1175.53 1033.34,-1115.53 660.34,-1115.53"/>
<text text-anchor="start" x="743.71" y="-1136.73" font-family="Helvetica,sans-Serif" font-weight="bold" font-size="32.00" fill="#ffffff"> &#160;&#160;&#160;&#160;&#160;&#160;Order &#160;&#160;&#160;&#160;&#160;&#160;</text>
<polygon fill="#e7e2dd" stroke="transparent" points="660.34,-1055.53 660.34,-1115.53 1033.34,-1115.53 1033.34,-1055.53 660.34,-1055.53"/>
<polygon fill="none" stroke="#29235c" points="660.34,-1055.53 660.34,-1115.53 1033.34,-1115.53 1033.34,-1055.53 660.34,-1055.53"/>
<text text-anchor="start" x="671.34" y="-1076.73" font-family="Helvetica,sans-Serif" font-weight="bold" font-size="32.00" fill="#29235c">id</text>
<text text-anchor="start" x="696.23" y="-1076.73" font-family="Helvetica,sans-Serif" font-size="32.00" fill="#29235c"> &#160;&#160;&#160;</text>
<text text-anchor="start" x="880.13" y="-1076.73" font-family="Helvetica,sans-Serif" font-style="italic" font-size="32.00" fill="#29235c">INTEGER</text>
<polygon fill="#e7e2dd" stroke="transparent" points="660.34,-995.53 660.34,-1055.53 1033.34,-1055.53 1033.34,-995.53 660.34,-995.53"/>
<polygon fill="none" stroke="#29235c" points="660.34,-995.53 660.34,-1055.53 1033.34,-1055.53 1033.34,-995.53 660.34,-995.53"/>
<text text-anchor="start" x="670.94" y="-1015.73" font-family="Helvetica,sans-Serif" font-size="32.00" fill="#29235c">customer_id &#160;&#160;&#160;</text>
<text text-anchor="start" x="880.24" y="-1016.73" font-family="Helvetica,sans-Serif" font-style="italic" font-size="32.00" fill="#29235c">INTEGER</text>
<polygon fill="#e7e2dd" stroke="transparent" points="660.34,-935.53 660.34,-995.53 1033.34,-995.53 1033.34,-935.53 660.34,-935.53"/>
<polygon fill="none" stroke="#29235c" points="660.34,-935.53 660.34,-995.53 1033.34,-995.53 1033.34,-935.53 660.34,-935.53"/>
<text text-anchor="start" x="671.2" y="-955.73" font-family="Helvetica,sans-Serif" font-size="32.00" fill="#29235c">order_date &#160;&#160;&#160;</text>
<text text-anchor="start" x="860.96" y="-956.73" font-family="Helvetica,sans-Serif" font-style="italic" font-size="32.00" fill="#29235c">DATETIME</text>
<polygon fill="#e7e2dd" stroke="transparent" points="660.34,-875.53 660.34,-935.53 1033.34,-935.53 1033.34,-875.53 660.34,-875.53"/>
<polygon fill="none" stroke="#29235c" points="660.34,-875.53 660.34,-935.53 1033.34,-935.53 1033.34,-875.53 660.34,-875.53"/>
<text text-anchor="start" x="671.34" y="-895.73" font-family="Helvetica,sans-Serif" font-size="32.00" fill="#29235c">amount_total &#160;&#160;&#160;</text>
<text text-anchor="start" x="919.22" y="-896.73" font-family="Helvetica,sans-Serif" font-style="italic" font-size="32.00" fill="#29235c">FLOAT</text>
<polygon fill="none" stroke="#29235c" stroke-width="2" points="658.84,-874.53 658.84,-1176.53 1033.84,-1176.53 1033.84,-874.53 658.84,-874.53"/>
</g>
<!-- Order&#45;&gt;Customer -->
<!-- Order&#45;&gt;Customer -->
<g id="edge2" class="edge">
<title>Order:e&#45;&gt;Customer:w</title>
<path fill="none" stroke="#29235c" stroke-width="3" d="M1034.34,-1025.53C1119.82,-1025.53 1135.19,-1080.94 1215.18,-1085.27"/>
<polygon fill="#29235c" stroke="#29235c" stroke-width="3" points="1215.18,-1088.77 1225.27,-1085.53 1215.37,-1081.77 1215.18,-1088.77"/>
<text text-anchor="middle" x="1219.05" y="-1095.13" font-family="Helvetica,sans-Serif" font-size="32.00" fill="#29235c">*</text>
<text text-anchor="middle" x="1025.45" y="-1035.13" font-family="Helvetica,sans-Serif" font-size="32.00" fill="#29235c">1</text>
</g>
<!-- OrderItem -->
<g id="OrderItem" class="node">
<title>OrderItem</title>
<ellipse fill="none" stroke="black" stroke-width="0" cx="267.29" cy="-931.53" rx="248.8" ry="257.27"/>
<polygon fill="#1d71b8" stroke="transparent" points="93.29,-1051.53 93.29,-1111.53 441.29,-1111.53 441.29,-1051.53 93.29,-1051.53"/>
<polygon fill="none" stroke="#29235c" points="93.29,-1051.53 93.29,-1111.53 441.29,-1111.53 441.29,-1051.53 93.29,-1051.53"/>
<text text-anchor="start" x="133.04" y="-1072.73" font-family="Helvetica,sans-Serif" font-weight="bold" font-size="32.00" fill="#ffffff"> &#160;&#160;&#160;&#160;&#160;&#160;OrderItem &#160;&#160;&#160;&#160;&#160;&#160;</text>
<polygon fill="#e7e2dd" stroke="transparent" points="93.29,-991.53 93.29,-1051.53 441.29,-1051.53 441.29,-991.53 93.29,-991.53"/>
<polygon fill="none" stroke="#29235c" points="93.29,-991.53 93.29,-1051.53 441.29,-1051.53 441.29,-991.53 93.29,-991.53"/>
<text text-anchor="start" x="104.29" y="-1012.73" font-family="Helvetica,sans-Serif" font-weight="bold" font-size="32.00" fill="#29235c">id</text>
<text text-anchor="start" x="129.18" y="-1012.73" font-family="Helvetica,sans-Serif" font-size="32.00" fill="#29235c"> &#160;&#160;&#160;</text>
<text text-anchor="start" x="288.07" y="-1012.73" font-family="Helvetica,sans-Serif" font-style="italic" font-size="32.00" fill="#29235c">INTEGER</text>
<polygon fill="#e7e2dd" stroke="transparent" points="93.29,-931.53 93.29,-991.53 441.29,-991.53 441.29,-931.53 93.29,-931.53"/>
<polygon fill="none" stroke="#29235c" points="93.29,-931.53 93.29,-991.53 441.29,-991.53 441.29,-931.53 93.29,-931.53"/>
<text text-anchor="start" x="104.29" y="-951.73" font-family="Helvetica,sans-Serif" font-size="32.00" fill="#29235c">order_id &#160;&#160;&#160;</text>
<text text-anchor="start" x="288.07" y="-952.73" font-family="Helvetica,sans-Serif" font-style="italic" font-size="32.00" fill="#29235c">INTEGER</text>
<polygon fill="#e7e2dd" stroke="transparent" points="93.29,-871.53 93.29,-931.53 441.29,-931.53 441.29,-871.53 93.29,-871.53"/>
<polygon fill="none" stroke="#29235c" points="93.29,-871.53 93.29,-931.53 441.29,-931.53 441.29,-871.53 93.29,-871.53"/>
<text text-anchor="start" x="103.81" y="-891.73" font-family="Helvetica,sans-Serif" font-size="32.00" fill="#29235c">product_id &#160;&#160;&#160;</text>
<text text-anchor="start" x="288.18" y="-892.73" font-family="Helvetica,sans-Serif" font-style="italic" font-size="32.00" fill="#29235c">INTEGER</text>
<polygon fill="#e7e2dd" stroke="transparent" points="93.29,-811.53 93.29,-871.53 441.29,-871.53 441.29,-811.53 93.29,-811.53"/>
<polygon fill="none" stroke="#29235c" points="93.29,-811.53 93.29,-871.53 441.29,-871.53 441.29,-811.53 93.29,-811.53"/>
<text text-anchor="start" x="104.29" y="-831.73" font-family="Helvetica,sans-Serif" font-size="32.00" fill="#29235c">quantity &#160;&#160;&#160;</text>
<text text-anchor="start" x="288.07" y="-832.73" font-family="Helvetica,sans-Serif" font-style="italic" font-size="32.00" fill="#29235c">INTEGER</text>
<polygon fill="#e7e2dd" stroke="transparent" points="93.29,-751.53 93.29,-811.53 441.29,-811.53 441.29,-751.53 93.29,-751.53"/>
<polygon fill="none" stroke="#29235c" points="93.29,-751.53 93.29,-811.53 441.29,-811.53 441.29,-751.53 93.29,-751.53"/>
<text text-anchor="start" x="104.29" y="-771.73" font-family="Helvetica,sans-Serif" font-size="32.00" fill="#29235c">amount &#160;&#160;&#160;</text>
<text text-anchor="start" x="327.17" y="-772.73" font-family="Helvetica,sans-Serif" font-style="italic" font-size="32.00" fill="#29235c">FLOAT</text>
<polygon fill="none" stroke="#29235c" stroke-width="2" points="92.29,-750.53 92.29,-1112.53 442.29,-1112.53 442.29,-750.53 92.29,-750.53"/>
</g>
<!-- OrderItem&#45;&gt;Order -->
<!-- OrderItem&#45;&gt;Order -->
<g id="edge4" class="edge">
<title>OrderItem:e&#45;&gt;Order:w</title>
<path fill="none" stroke="#29235c" stroke-width="3" d="M442.29,-961.53C549.92,-961.53 548.45,-1077.91 649.26,-1085.18"/>
<polygon fill="#29235c" stroke="#29235c" stroke-width="3" points="649.23,-1088.68 659.34,-1085.53 649.47,-1081.68 649.23,-1088.68"/>
<text text-anchor="middle" x="653.12" y="-1095.13" font-family="Helvetica,sans-Serif" font-size="32.00" fill="#29235c">*</text>
<text text-anchor="middle" x="433.39" y="-971.13" font-family="Helvetica,sans-Serif" font-size="32.00" fill="#29235c">1</text>
</g>
<!-- Product -->
<g id="Product" class="node">
<title>Product</title>
<ellipse fill="none" stroke="black" stroke-width="0" cx="846.34" cy="-577.53" rx="210.02" ry="214.92"/>
<polygon fill="#1d71b8" stroke="transparent" points="700.34,-667.53 700.34,-727.53 993.34,-727.53 993.34,-667.53 700.34,-667.53"/>
<polygon fill="none" stroke="#29235c" points="700.34,-667.53 700.34,-727.53 993.34,-727.53 993.34,-667.53 700.34,-667.53"/>
<text text-anchor="start" x="729.47" y="-688.73" font-family="Helvetica,sans-Serif" font-weight="bold" font-size="32.00" fill="#ffffff"> &#160;&#160;&#160;&#160;&#160;&#160;Product &#160;&#160;&#160;&#160;&#160;&#160;</text>
<polygon fill="#e7e2dd" stroke="transparent" points="700.34,-607.53 700.34,-667.53 993.34,-667.53 993.34,-607.53 700.34,-607.53"/>
<polygon fill="none" stroke="#29235c" points="700.34,-607.53 700.34,-667.53 993.34,-667.53 993.34,-607.53 700.34,-607.53"/>
<text text-anchor="start" x="711.34" y="-628.73" font-family="Helvetica,sans-Serif" font-weight="bold" font-size="32.00" fill="#29235c">id</text>
<text text-anchor="start" x="736.23" y="-628.73" font-family="Helvetica,sans-Serif" font-size="32.00" fill="#29235c"> &#160;&#160;&#160;</text>
<text text-anchor="start" x="840.13" y="-628.73" font-family="Helvetica,sans-Serif" font-style="italic" font-size="32.00" fill="#29235c">INTEGER</text>
<polygon fill="#e7e2dd" stroke="transparent" points="700.34,-547.53 700.34,-607.53 993.34,-607.53 993.34,-547.53 700.34,-547.53"/>
<polygon fill="none" stroke="#29235c" points="700.34,-547.53 700.34,-607.53 993.34,-607.53 993.34,-547.53 700.34,-547.53"/>
<text text-anchor="start" x="711.05" y="-567.73" font-family="Helvetica,sans-Serif" font-size="32.00" fill="#29235c">name &#160;&#160;&#160;</text>
<text text-anchor="start" x="826.13" y="-568.73" font-family="Helvetica,sans-Serif" font-style="italic" font-size="32.00" fill="#29235c">VARCHAR</text>
<polygon fill="#e7e2dd" stroke="transparent" points="700.34,-487.53 700.34,-547.53 993.34,-547.53 993.34,-487.53 700.34,-487.53"/>
<polygon fill="none" stroke="#29235c" points="700.34,-487.53 700.34,-547.53 993.34,-547.53 993.34,-487.53 700.34,-487.53"/>
<text text-anchor="start" x="711.34" y="-507.73" font-family="Helvetica,sans-Serif" font-size="32.00" fill="#29235c">price &#160;&#160;&#160;</text>
<text text-anchor="start" x="879.22" y="-508.73" font-family="Helvetica,sans-Serif" font-style="italic" font-size="32.00" fill="#29235c">FLOAT</text>
<polygon fill="#e7e2dd" stroke="transparent" points="700.34,-427.53 700.34,-487.53 993.34,-487.53 993.34,-427.53 700.34,-427.53"/>
<polygon fill="none" stroke="#29235c" points="700.34,-427.53 700.34,-487.53 993.34,-487.53 993.34,-427.53 700.34,-427.53"/>
<text text-anchor="start" x="711.21" y="-447.73" font-family="Helvetica,sans-Serif" font-size="32.00" fill="#29235c">description &#160;&#160;&#160;</text>
<text text-anchor="start" x="900.95" y="-448.73" font-family="Helvetica,sans-Serif" font-style="italic" font-size="32.00" fill="#29235c">TEXT</text>
<polygon fill="none" stroke="#29235c" stroke-width="2" points="698.84,-426.53 698.84,-728.53 993.84,-728.53 993.84,-426.53 698.84,-426.53"/>
</g>
<!-- OrderItem&#45;&gt;Product -->
<!-- OrderItem&#45;&gt;Product -->
<g id="edge6" class="edge">
<title>OrderItem:e&#45;&gt;Product:w</title>
<path fill="none" stroke="#29235c" stroke-width="3" d="M442.29,-901.53C602.54,-901.53 538.5,-648.76 689.11,-637.89"/>
<polygon fill="#29235c" stroke="#29235c" stroke-width="3" points="689.47,-641.38 699.34,-637.53 689.23,-634.39 689.47,-641.38"/>
<text text-anchor="middle" x="693.12" y="-647.13" font-family="Helvetica,sans-Serif" font-size="32.00" fill="#29235c">*</text>
<text text-anchor="middle" x="433.39" y="-911.13" font-family="Helvetica,sans-Serif" font-size="32.00" fill="#29235c">1</text>
</g>
<!-- ProductSupplier -->
<g id="ProductSupplier" class="node">
<title>ProductSupplier</title>
<ellipse fill="none" stroke="black" stroke-width="0" cx="267.29" cy="-419.53" rx="267.07" ry="172.57"/>
<polygon fill="#1d71b8" stroke="transparent" points="80.29,-479.53 80.29,-539.53 454.29,-539.53 454.29,-479.53 80.29,-479.53"/>
<polygon fill="none" stroke="#29235c" points="80.29,-479.53 80.29,-539.53 454.29,-539.53 454.29,-479.53 80.29,-479.53"/>
<text text-anchor="start" x="91.24" y="-500.73" font-family="Helvetica,sans-Serif" font-weight="bold" font-size="32.00" fill="#ffffff"> &#160;&#160;&#160;&#160;&#160;&#160;ProductSupplier &#160;&#160;&#160;&#160;&#160;&#160;</text>
<polygon fill="#e7e2dd" stroke="transparent" points="80.29,-419.53 80.29,-479.53 454.29,-479.53 454.29,-419.53 80.29,-419.53"/>
<polygon fill="none" stroke="#29235c" points="80.29,-419.53 80.29,-479.53 454.29,-479.53 454.29,-419.53 80.29,-419.53"/>
<text text-anchor="start" x="91.29" y="-440.73" font-family="Helvetica,sans-Serif" font-weight="bold" font-size="32.00" fill="#29235c">id</text>
<text text-anchor="start" x="116.18" y="-440.73" font-family="Helvetica,sans-Serif" font-size="32.00" fill="#29235c"> &#160;&#160;&#160;</text>
<text text-anchor="start" x="301.07" y="-440.73" font-family="Helvetica,sans-Serif" font-style="italic" font-size="32.00" fill="#29235c">INTEGER</text>
<polygon fill="#e7e2dd" stroke="transparent" points="80.29,-359.53 80.29,-419.53 454.29,-419.53 454.29,-359.53 80.29,-359.53"/>
<polygon fill="none" stroke="#29235c" points="80.29,-359.53 80.29,-419.53 454.29,-419.53 454.29,-359.53 80.29,-359.53"/>
<text text-anchor="start" x="91.29" y="-379.73" font-family="Helvetica,sans-Serif" font-size="32.00" fill="#29235c">product_id &#160;&#160;&#160;</text>
<text text-anchor="start" x="301.07" y="-380.73" font-family="Helvetica,sans-Serif" font-style="italic" font-size="32.00" fill="#29235c">INTEGER</text>
<polygon fill="#e7e2dd" stroke="transparent" points="80.29,-299.53 80.29,-359.53 454.29,-359.53 454.29,-299.53 80.29,-299.53"/>
<polygon fill="none" stroke="#29235c" points="80.29,-299.53 80.29,-359.53 454.29,-359.53 454.29,-299.53 80.29,-299.53"/>
<text text-anchor="start" x="91.29" y="-319.73" font-family="Helvetica,sans-Serif" font-size="32.00" fill="#29235c">supplier_id &#160;&#160;&#160;</text>
<text text-anchor="start" x="301.07" y="-320.73" font-family="Helvetica,sans-Serif" font-style="italic" font-size="32.00" fill="#29235c">INTEGER</text>
<polygon fill="none" stroke="#29235c" stroke-width="2" points="79.29,-298.53 79.29,-540.53 455.29,-540.53 455.29,-298.53 79.29,-298.53"/>
</g>
<!-- ProductSupplier&#45;&gt;Product -->
<!-- ProductSupplier&#45;&gt;Product -->
<g id="edge8" class="edge">
<title>ProductSupplier:e&#45;&gt;Product:w</title>
<path fill="none" stroke="#29235c" stroke-width="3" d="M455.29,-389.53C606.46,-389.53 547.52,-626.52 689.25,-637.16"/>
<polygon fill="#29235c" stroke="#29235c" stroke-width="3" points="689.22,-640.67 699.34,-637.53 689.48,-633.67 689.22,-640.67"/>
<text text-anchor="middle" x="693.12" y="-608.73" font-family="Helvetica,sans-Serif" font-size="32.00" fill="#29235c">*</text>
<text text-anchor="middle" x="446.39" y="-399.13" font-family="Helvetica,sans-Serif" font-size="32.00" fill="#29235c">1</text>
</g>
<!-- Supplier -->
<g id="Supplier" class="node">
<title>Supplier</title>
<ellipse fill="none" stroke="black" stroke-width="0" cx="846.34" cy="-172.53" rx="275.54" ry="172.57"/>
<polygon fill="#1d71b8" stroke="transparent" points="653.34,-232.53 653.34,-292.53 1039.34,-292.53 1039.34,-232.53 653.34,-232.53"/>
<polygon fill="none" stroke="#29235c" points="653.34,-232.53 653.34,-292.53 1039.34,-292.53 1039.34,-232.53 653.34,-232.53"/>
<text text-anchor="start" x="725.42" y="-253.73" font-family="Helvetica,sans-Serif" font-weight="bold" font-size="32.00" fill="#ffffff"> &#160;&#160;&#160;&#160;&#160;&#160;Supplier &#160;&#160;&#160;&#160;&#160;&#160;</text>
<polygon fill="#e7e2dd" stroke="transparent" points="653.34,-172.53 653.34,-232.53 1039.34,-232.53 1039.34,-172.53 653.34,-172.53"/>
<polygon fill="none" stroke="#29235c" points="653.34,-172.53 653.34,-232.53 1039.34,-232.53 1039.34,-172.53 653.34,-172.53"/>
<text text-anchor="start" x="664.34" y="-193.73" font-family="Helvetica,sans-Serif" font-weight="bold" font-size="32.00" fill="#29235c">id</text>
<text text-anchor="start" x="689.23" y="-193.73" font-family="Helvetica,sans-Serif" font-size="32.00" fill="#29235c"> &#160;&#160;&#160;</text>
<text text-anchor="start" x="886.13" y="-193.73" font-family="Helvetica,sans-Serif" font-style="italic" font-size="32.00" fill="#29235c">INTEGER</text>
<polygon fill="#e7e2dd" stroke="transparent" points="653.34,-112.53 653.34,-172.53 1039.34,-172.53 1039.34,-112.53 653.34,-112.53"/>
<polygon fill="none" stroke="#29235c" points="653.34,-112.53 653.34,-172.53 1039.34,-172.53 1039.34,-112.53 653.34,-112.53"/>
<text text-anchor="start" x="664.34" y="-132.73" font-family="Helvetica,sans-Serif" font-size="32.00" fill="#29235c">name &#160;&#160;&#160;</text>
<text text-anchor="start" x="871.92" y="-133.73" font-family="Helvetica,sans-Serif" font-style="italic" font-size="32.00" fill="#29235c">VARCHAR</text>
<polygon fill="#e7e2dd" stroke="transparent" points="653.34,-52.53 653.34,-112.53 1039.34,-112.53 1039.34,-52.53 653.34,-52.53"/>
<polygon fill="none" stroke="#29235c" points="653.34,-52.53 653.34,-112.53 1039.34,-112.53 1039.34,-52.53 653.34,-52.53"/>
<text text-anchor="start" x="664.3" y="-72.73" font-family="Helvetica,sans-Serif" font-size="32.00" fill="#29235c">contact_info &#160;&#160;&#160;</text>
<text text-anchor="start" x="872.13" y="-73.73" font-family="Helvetica,sans-Serif" font-style="italic" font-size="32.00" fill="#29235c">VARCHAR</text>
<polygon fill="none" stroke="#29235c" stroke-width="2" points="652.34,-51.53 652.34,-293.53 1040.34,-293.53 1040.34,-51.53 652.34,-51.53"/>
</g>
<!-- ProductSupplier&#45;&gt;Supplier -->
<!-- ProductSupplier&#45;&gt;Supplier -->
<g id="edge10" class="edge">
<title>ProductSupplier:e&#45;&gt;Supplier:w</title>
<path fill="none" stroke="#29235c" stroke-width="3" d="M455.29,-329.53C556.02,-329.53 548.78,-210.83 642.34,-202.94"/>
<polygon fill="#29235c" stroke="#29235c" stroke-width="3" points="642.5,-206.44 652.34,-202.53 642.21,-199.45 642.5,-206.44"/>
<text text-anchor="middle" x="646.12" y="-173.73" font-family="Helvetica,sans-Serif" font-size="32.00" fill="#29235c">*</text>
<text text-anchor="middle" x="446.39" y="-339.13" font-family="Helvetica,sans-Serif" font-size="32.00" fill="#29235c">1</text>
</g>
</g>
</svg>
